<svg xmlns="http://www.w3.org/2000/svg" xmlns:xlink="http://www.w3.org/1999/xlink" width="315" zoomAndPan="magnify" viewBox="30 145 315 80" height="80" preserveAspectRatio="xMidYMid meet" version="1.0"><defs><g/><clipPath id="d69e965180"><path d="M 81 156.5625 L 112.5 156.5625 L 112.5 218.8125 L 81 218.8125 Z M 81 156.5625 " clip-rule="nonzero"/></clipPath><clipPath id="8faf18a5e6"><path d="M 37.5 156.5625 L 69 156.5625 L 69 218.8125 L 37.5 218.8125 Z M 37.5 156.5625 " clip-rule="nonzero"/></clipPath></defs><g clip-path="url(#d69e965180)"><path fill="#29acff" d="M 81.515625 156.554688 L 81.515625 169.210938 L 99.796875 187.492188 L 81.515625 205.773438 L 81.515625 218.425781 L 112.453125 187.492188 Z M 81.515625 156.554688 " fill-opacity="1" fill-rule="nonzero"/></g><g clip-path="url(#8faf18a5e6)"><path fill="#29acff" d="M 68.5 169.210938 L 68.5 156.554688 L 37.5625 187.492188 L 68.5 218.425781 L 68.5 205.773438 L 50.21875 187.492188 Z M 68.5 169.210938 " fill-opacity="1" fill-rule="nonzero"/></g><path fill="#29acff" d="M 59.898438 187.492188 L 75.007812 172.382812 L 90.117188 187.492188 L 75.007812 202.601562 Z M 59.898438 187.492188 " fill-opacity="1" fill-rule="nonzero"/><g fill="#ffffff" fill-opacity="1"><g transform="translate(117.035999, 194.624987)"><g><path d="M 10.390625 -9.234375 L 21.859375 -9.234375 L 21.859375 -6.40625 C 21.859375 -4.78125 21.523438 -3.472656 20.859375 -2.484375 C 20.191406 -1.492188 19.117188 -0.769531 17.640625 -0.3125 C 16.160156 0.132812 14.1875 0.359375 11.71875 0.359375 C 9.175781 0.359375 7.175781 0.101562 5.71875 -0.40625 C 4.257812 -0.925781 3.203125 -1.757812 2.546875 -2.90625 C 1.890625 -4.050781 1.5625 -5.613281 1.5625 -7.59375 C 1.5625 -9.613281 1.835938 -11.191406 2.390625 -12.328125 C 2.953125 -13.460938 3.875 -14.28125 5.15625 -14.78125 C 6.445312 -15.28125 8.242188 -15.53125 10.546875 -15.53125 C 14.523438 -15.53125 17.972656 -15.410156 20.890625 -15.171875 L 21.015625 -11.109375 C 17.222656 -11.460938 14.175781 -11.703125 11.875 -11.828125 C 10.570312 -11.898438 8.804688 -11.972656 6.578125 -12.046875 L 6.578125 -3.796875 C 8.179688 -3.703125 9.960938 -3.65625 11.921875 -3.65625 C 13.921875 -3.65625 15.75 -3.703125 17.40625 -3.796875 L 17.40625 -6.109375 L 10.390625 -6.109375 Z M 10.390625 -9.234375 "/></g></g></g><g fill="#ffffff" fill-opacity="1"><g transform="translate(142.361613, 194.624987)"><g><path d="M 16.359375 0 L 1.453125 0 L 1.453125 -3.65625 L 6.734375 -3.65625 L 6.734375 -11.53125 L 1.453125 -11.53125 L 1.453125 -15.171875 L 16.359375 -15.171875 L 16.359375 -11.53125 L 11.09375 -11.53125 L 11.09375 -3.65625 L 16.359375 -3.65625 Z M 16.359375 0 "/></g></g></g><g fill="#ffffff" fill-opacity="1"><g transform="translate(162.39914, 194.624987)"><g><path d="M 12.09375 0.359375 C 9.414062 0.359375 7.320312 0.109375 5.8125 -0.390625 C 4.300781 -0.890625 3.210938 -1.707031 2.546875 -2.84375 C 1.890625 -3.976562 1.5625 -5.5625 1.5625 -7.59375 C 1.5625 -9.625 1.890625 -11.207031 2.546875 -12.34375 C 3.203125 -13.488281 4.285156 -14.304688 5.796875 -14.796875 C 7.304688 -15.285156 9.40625 -15.53125 12.09375 -15.53125 C 14.78125 -15.53125 16.878906 -15.285156 18.390625 -14.796875 C 19.898438 -14.304688 20.984375 -13.488281 21.640625 -12.34375 C 22.296875 -11.207031 22.625 -9.625 22.625 -7.59375 C 22.625 -5.5625 22.296875 -3.976562 21.640625 -2.84375 C 20.984375 -1.707031 19.898438 -0.890625 18.390625 -0.390625 C 16.878906 0.109375 14.78125 0.359375 12.09375 0.359375 Z M 12.09375 -3.65625 C 13.9375 -3.65625 15.78125 -3.703125 17.625 -3.796875 L 17.625 -11.40625 C 15.570312 -11.476562 13.726562 -11.515625 12.09375 -11.515625 C 10.457031 -11.515625 8.617188 -11.476562 6.578125 -11.40625 L 6.578125 -3.796875 C 8.410156 -3.703125 10.25 -3.65625 12.09375 -3.65625 Z M 12.09375 -3.65625 "/></g></g></g><g fill="#ffffff" fill-opacity="1"><g transform="translate(188.818065, 194.624987)"><g><path d="M 13.515625 0 L 6.625 0 L -0.0625 -15.0625 L -0.0625 -15.171875 L 4.90625 -15.171875 L 10.109375 -3.09375 L 10.21875 -3.09375 L 15.53125 -15.171875 L 20.34375 -15.171875 L 20.34375 -15.0625 Z M 13.515625 0 "/></g></g></g><g fill="#ffffff" fill-opacity="1"><g transform="translate(211.332289, 194.624987)"><g><path d="M 11.734375 0.359375 C 7.835938 0.359375 4.429688 0.1875 1.515625 -0.15625 L 1.359375 -4.21875 C 4.285156 -3.832031 6.617188 -3.578125 8.359375 -3.453125 C 10.109375 -3.347656 12.164062 -3.257812 14.53125 -3.1875 L 14.53125 -5.640625 L 6.421875 -6.265625 C 4.609375 -6.421875 3.269531 -6.863281 2.40625 -7.59375 C 1.539062 -8.332031 1.109375 -9.410156 1.109375 -10.828125 C 1.109375 -12.441406 1.695312 -13.628906 2.875 -14.390625 C 4.050781 -15.148438 5.90625 -15.53125 8.4375 -15.53125 C 11.082031 -15.53125 14.363281 -15.375 18.28125 -15.0625 L 18.40625 -11 C 15.53125 -11.382812 12.921875 -11.648438 10.578125 -11.796875 C 9.003906 -11.898438 7.445312 -11.960938 5.90625 -11.984375 L 5.90625 -9.59375 L 13.59375 -8.984375 C 15.570312 -8.828125 17.019531 -8.382812 17.9375 -7.65625 C 18.863281 -6.925781 19.328125 -5.820312 19.328125 -4.34375 C 19.328125 -2.757812 18.738281 -1.578125 17.5625 -0.796875 C 16.394531 -0.0234375 14.453125 0.359375 11.734375 0.359375 Z M 11.734375 0.359375 "/></g></g></g><g fill="#ffffff" fill-opacity="1"><g transform="translate(233.779576, 194.624987)"><g><path d="M 12.09375 0.359375 C 9.414062 0.359375 7.320312 0.109375 5.8125 -0.390625 C 4.300781 -0.890625 3.210938 -1.707031 2.546875 -2.84375 C 1.890625 -3.976562 1.5625 -5.5625 1.5625 -7.59375 C 1.5625 -9.625 1.890625 -11.207031 2.546875 -12.34375 C 3.203125 -13.488281 4.285156 -14.304688 5.796875 -14.796875 C 7.304688 -15.285156 9.40625 -15.53125 12.09375 -15.53125 C 14.78125 -15.53125 16.878906 -15.285156 18.390625 -14.796875 C 19.898438 -14.304688 20.984375 -13.488281 21.640625 -12.34375 C 22.296875 -11.207031 22.625 -9.625 22.625 -7.59375 C 22.625 -5.5625 22.296875 -3.976562 21.640625 -2.84375 C 20.984375 -1.707031 19.898438 -0.890625 18.390625 -0.390625 C 16.878906 0.109375 14.78125 0.359375 12.09375 0.359375 Z M 12.09375 -3.65625 C 13.9375 -3.65625 15.78125 -3.703125 17.625 -3.796875 L 17.625 -11.40625 C 15.570312 -11.476562 13.726562 -11.515625 12.09375 -11.515625 C 10.457031 -11.515625 8.617188 -11.476562 6.578125 -11.40625 L 6.578125 -3.796875 C 8.410156 -3.703125 10.25 -3.65625 12.09375 -3.65625 Z M 12.09375 -3.65625 "/></g></g></g><g fill="#ffffff" fill-opacity="1"><g transform="translate(260.1985, 194.624987)"><g><path d="M 7.03125 0 L 2.453125 0 L 2.453125 -15.171875 L 19.640625 -15.171875 L 19.640625 -11.3125 L 7.03125 -11.3125 L 7.03125 -8.484375 L 16.15625 -8.484375 L 16.15625 -5.0625 L 7.03125 -5.0625 Z M 7.03125 0 "/></g></g></g><g fill="#ffffff" fill-opacity="1"><g transform="translate(282.221852, 194.624987)"><g><path d="M 12.140625 0 L 7.5625 0 L 7.5625 -11.3125 L 0.171875 -11.3125 L 0.171875 -15.171875 L 19.515625 -15.171875 L 19.515625 -11.3125 L 12.140625 -11.3125 Z M 12.140625 0 "/></g></g></g><g fill="#ffffff" fill-opacity="1"><g transform="translate(117.435913, 209.392882)"><g><path d="M 1.765625 -7.265625 L 1.765625 0 L 0.875 0 L 0.875 -7.265625 Z M 1.765625 -7.265625 "/></g></g></g><g fill="#ffffff" fill-opacity="1"><g transform="translate(122.076973, 209.392882)"><g><path d="M 6.640625 -7.265625 L 6.640625 0 L 5.796875 0 L 1.828125 -5.703125 L 1.765625 -5.703125 L 1.765625 0 L 0.875 0 L 0.875 -7.265625 L 1.734375 -7.265625 L 5.703125 -1.546875 L 5.78125 -1.546875 L 5.78125 -7.265625 Z M 6.640625 -7.265625 "/></g></g></g><g fill="#ffffff" fill-opacity="1"><g transform="translate(131.602577, 209.392882)"><g><path d="M 6.640625 -7.265625 L 6.640625 0 L 5.796875 0 L 1.828125 -5.703125 L 1.765625 -5.703125 L 1.765625 0 L 0.875 0 L 0.875 -7.265625 L 1.734375 -7.265625 L 5.703125 -1.546875 L 5.78125 -1.546875 L 5.78125 -7.265625 Z M 6.640625 -7.265625 "/></g></g></g><g fill="#ffffff" fill-opacity="1"><g transform="translate(141.12818, 209.392882)"><g><path d="M 7.015625 -3.640625 C 7.015625 -2.867188 6.875 -2.203125 6.59375 -1.640625 C 6.320312 -1.085938 5.941406 -0.660156 5.453125 -0.359375 C 4.972656 -0.0546875 4.425781 0.09375 3.8125 0.09375 C 3.1875 0.09375 2.628906 -0.0546875 2.140625 -0.359375 C 1.660156 -0.660156 1.28125 -1.085938 1 -1.640625 C 0.726562 -2.203125 0.59375 -2.867188 0.59375 -3.640625 C 0.59375 -4.398438 0.726562 -5.0625 1 -5.625 C 1.28125 -6.1875 1.660156 -6.617188 2.140625 -6.921875 C 2.628906 -7.222656 3.1875 -7.375 3.8125 -7.375 C 4.425781 -7.375 4.972656 -7.222656 5.453125 -6.921875 C 5.941406 -6.617188 6.320312 -6.1875 6.59375 -5.625 C 6.875 -5.0625 7.015625 -4.398438 7.015625 -3.640625 Z M 6.171875 -3.640625 C 6.171875 -4.265625 6.0625 -4.789062 5.84375 -5.21875 C 5.632812 -5.65625 5.351562 -5.984375 5 -6.203125 C 4.644531 -6.429688 4.25 -6.546875 3.8125 -6.546875 C 3.363281 -6.546875 2.960938 -6.429688 2.609375 -6.203125 C 2.253906 -5.984375 1.972656 -5.65625 1.765625 -5.21875 C 1.554688 -4.789062 1.453125 -4.265625 1.453125 -3.640625 C 1.453125 -3.003906 1.554688 -2.46875 1.765625 -2.03125 C 1.972656 -1.601562 2.253906 -1.273438 2.609375 -1.046875 C 2.960938 -0.828125 3.363281 -0.71875 3.8125 -0.71875 C 4.25 -0.71875 4.644531 -0.828125 5 -1.046875 C 5.351562 -1.273438 5.632812 -1.601562 5.84375 -2.03125 C 6.0625 -2.46875 6.171875 -3.003906 6.171875 -3.640625 Z M 6.171875 -3.640625 "/></g></g></g><g fill="#ffffff" fill-opacity="1"><g transform="translate(150.738974, 209.392882)"><g><path d="M 1.171875 -7.265625 L 3.34375 -1.15625 L 3.421875 -1.15625 L 5.578125 -7.265625 L 6.5 -7.265625 L 3.828125 0 L 2.921875 0 L 0.25 -7.265625 Z M 1.171875 -7.265625 "/></g></g></g><g fill="#ffffff" fill-opacity="1"><g transform="translate(159.497812, 209.392882)"><g><path d="M 1.171875 0 L 0.25 0 L 2.921875 -7.265625 L 3.828125 -7.265625 L 6.5 0 L 5.578125 0 L 4.84375 -2.0625 L 1.90625 -2.0625 Z M 2.1875 -2.84375 L 4.578125 -2.84375 L 3.40625 -6.125 L 3.359375 -6.125 Z M 2.1875 -2.84375 "/></g></g></g><g fill="#ffffff" fill-opacity="1"><g transform="translate(168.25665, 209.392882)"><g><path d="M 6.734375 -5 L 5.859375 -5 C 5.785156 -5.332031 5.644531 -5.613281 5.4375 -5.84375 C 5.238281 -6.070312 5 -6.242188 4.71875 -6.359375 C 4.4375 -6.484375 4.132812 -6.546875 3.8125 -6.546875 C 3.363281 -6.546875 2.960938 -6.429688 2.609375 -6.203125 C 2.253906 -5.984375 1.972656 -5.65625 1.765625 -5.21875 C 1.554688 -4.789062 1.453125 -4.265625 1.453125 -3.640625 C 1.453125 -3.003906 1.554688 -2.46875 1.765625 -2.03125 C 1.972656 -1.601562 2.253906 -1.273438 2.609375 -1.046875 C 2.960938 -0.828125 3.363281 -0.71875 3.8125 -0.71875 C 4.132812 -0.71875 4.4375 -0.773438 4.71875 -0.890625 C 5 -1.015625 5.238281 -1.191406 5.4375 -1.421875 C 5.644531 -1.648438 5.785156 -1.929688 5.859375 -2.265625 L 6.734375 -2.265625 C 6.640625 -1.773438 6.453125 -1.351562 6.171875 -1 C 5.898438 -0.644531 5.554688 -0.375 5.140625 -0.1875 C 4.734375 0 4.289062 0.09375 3.8125 0.09375 C 3.1875 0.09375 2.628906 -0.0546875 2.140625 -0.359375 C 1.660156 -0.660156 1.28125 -1.085938 1 -1.640625 C 0.726562 -2.203125 0.59375 -2.867188 0.59375 -3.640625 C 0.59375 -4.398438 0.726562 -5.0625 1 -5.625 C 1.28125 -6.1875 1.660156 -6.617188 2.140625 -6.921875 C 2.628906 -7.222656 3.1875 -7.375 3.8125 -7.375 C 4.289062 -7.375 4.734375 -7.28125 5.140625 -7.09375 C 5.554688 -6.90625 5.898438 -6.632812 6.171875 -6.28125 C 6.453125 -5.925781 6.640625 -5.5 6.734375 -5 Z M 6.734375 -5 "/></g></g></g><g fill="#ffffff" fill-opacity="1"><g transform="translate(177.526661, 209.392882)"><g><path d="M 1.765625 -7.265625 L 1.765625 0 L 0.875 0 L 0.875 -7.265625 Z M 1.765625 -7.265625 "/></g></g></g><g fill="#ffffff" fill-opacity="1"><g transform="translate(182.167721, 209.392882)"><g><path d="M 7.015625 -3.640625 C 7.015625 -2.867188 6.875 -2.203125 6.59375 -1.640625 C 6.320312 -1.085938 5.941406 -0.660156 5.453125 -0.359375 C 4.972656 -0.0546875 4.425781 0.09375 3.8125 0.09375 C 3.1875 0.09375 2.628906 -0.0546875 2.140625 -0.359375 C 1.660156 -0.660156 1.28125 -1.085938 1 -1.640625 C 0.726562 -2.203125 0.59375 -2.867188 0.59375 -3.640625 C 0.59375 -4.398438 0.726562 -5.0625 1 -5.625 C 1.28125 -6.1875 1.660156 -6.617188 2.140625 -6.921875 C 2.628906 -7.222656 3.1875 -7.375 3.8125 -7.375 C 4.425781 -7.375 4.972656 -7.222656 5.453125 -6.921875 C 5.941406 -6.617188 6.320312 -6.1875 6.59375 -5.625 C 6.875 -5.0625 7.015625 -4.398438 7.015625 -3.640625 Z M 6.171875 -3.640625 C 6.171875 -4.265625 6.0625 -4.789062 5.84375 -5.21875 C 5.632812 -5.65625 5.351562 -5.984375 5 -6.203125 C 4.644531 -6.429688 4.25 -6.546875 3.8125 -6.546875 C 3.363281 -6.546875 2.960938 -6.429688 2.609375 -6.203125 C 2.253906 -5.984375 1.972656 -5.65625 1.765625 -5.21875 C 1.554688 -4.789062 1.453125 -4.265625 1.453125 -3.640625 C 1.453125 -3.003906 1.554688 -2.46875 1.765625 -2.03125 C 1.972656 -1.601562 2.253906 -1.273438 2.609375 -1.046875 C 2.960938 -0.828125 3.363281 -0.71875 3.8125 -0.71875 C 4.25 -0.71875 4.644531 -0.828125 5 -1.046875 C 5.351562 -1.273438 5.632812 -1.601562 5.84375 -2.03125 C 6.0625 -2.46875 6.171875 -3.003906 6.171875 -3.640625 Z M 3.421875 -8 L 4.28125 -9.65625 L 5.265625 -9.65625 L 4.15625 -8 Z M 3.421875 -8 "/></g></g></g><g fill="#ffffff" fill-opacity="1"><g transform="translate(191.778514, 209.392882)"><g><path d="M 6.640625 -7.265625 L 6.640625 0 L 5.796875 0 L 1.828125 -5.703125 L 1.765625 -5.703125 L 1.765625 0 L 0.875 0 L 0.875 -7.265625 L 1.734375 -7.265625 L 5.703125 -1.546875 L 5.78125 -1.546875 L 5.78125 -7.265625 Z M 6.640625 -7.265625 "/></g></g></g><g fill="#ffffff" fill-opacity="1"><g transform="translate(201.304118, 209.392882)"><g/></g></g><g fill="#ffffff" fill-opacity="1"><g transform="translate(206.115568, 209.392882)"><g><path d="M 1.171875 0 L 0.25 0 L 2.921875 -7.265625 L 3.828125 -7.265625 L 6.5 0 L 5.578125 0 L 4.84375 -2.0625 L 1.90625 -2.0625 Z M 2.1875 -2.84375 L 4.578125 -2.84375 L 3.40625 -6.125 L 3.359375 -6.125 Z M 2.1875 -2.84375 "/></g></g></g><g fill="#ffffff" fill-opacity="1"><g transform="translate(214.874406, 209.392882)"><g/></g></g><g fill="#ffffff" fill-opacity="1"><g transform="translate(219.685857, 209.392882)"><g><path d="M 0.484375 -6.484375 L 0.484375 -7.265625 L 5.9375 -7.265625 L 5.9375 -6.484375 L 3.65625 -6.484375 L 3.65625 0 L 2.765625 0 L 2.765625 -6.484375 Z M 0.484375 -6.484375 "/></g></g></g><g fill="#ffffff" fill-opacity="1"><g transform="translate(228.103913, 209.392882)"><g><path d="M 5.65625 -7.265625 L 6.53125 -7.265625 L 6.53125 -2.453125 C 6.53125 -1.910156 6.398438 -1.445312 6.140625 -1.0625 C 5.890625 -0.675781 5.546875 -0.378906 5.109375 -0.171875 C 4.679688 0.0234375 4.210938 0.125 3.703125 0.125 C 3.191406 0.125 2.722656 0.0234375 2.296875 -0.171875 C 1.867188 -0.378906 1.523438 -0.675781 1.265625 -1.0625 C 1.003906 -1.445312 0.875 -1.910156 0.875 -2.453125 L 0.875 -7.265625 L 1.765625 -7.265625 L 1.765625 -2.453125 C 1.765625 -2.078125 1.851562 -1.757812 2.03125 -1.5 C 2.207031 -1.238281 2.441406 -1.039062 2.734375 -0.90625 C 3.035156 -0.769531 3.359375 -0.703125 3.703125 -0.703125 C 4.046875 -0.703125 4.363281 -0.769531 4.65625 -0.90625 C 4.957031 -1.039062 5.195312 -1.238281 5.375 -1.5 C 5.5625 -1.757812 5.65625 -2.078125 5.65625 -2.453125 Z M 5.65625 -7.265625 "/></g></g></g><g fill="#ffffff" fill-opacity="1"><g transform="translate(237.515923, 209.392882)"><g/></g></g><g fill="#ffffff" fill-opacity="1"><g transform="translate(242.327373, 209.392882)"><g><path d="M 1.171875 0 L 0.25 0 L 2.921875 -7.265625 L 3.828125 -7.265625 L 6.5 0 L 5.578125 0 L 4.84375 -2.0625 L 1.90625 -2.0625 Z M 2.1875 -2.84375 L 4.578125 -2.84375 L 3.40625 -6.125 L 3.359375 -6.125 Z M 2.1875 -2.84375 "/></g></g></g><g fill="#ffffff" fill-opacity="1"><g transform="translate(251.086211, 209.392882)"><g><path d="M 0.875 0 L 0.875 -7.265625 L 1.765625 -7.265625 L 1.765625 -0.78125 L 5.140625 -0.78125 L 5.140625 0 Z M 0.875 0 "/></g></g></g><g fill="#ffffff" fill-opacity="1"><g transform="translate(258.709109, 209.392882)"><g><path d="M 6.734375 -5 L 5.859375 -5 C 5.785156 -5.332031 5.644531 -5.613281 5.4375 -5.84375 C 5.238281 -6.070312 5 -6.242188 4.71875 -6.359375 C 4.4375 -6.484375 4.132812 -6.546875 3.8125 -6.546875 C 3.363281 -6.546875 2.960938 -6.429688 2.609375 -6.203125 C 2.253906 -5.984375 1.972656 -5.65625 1.765625 -5.21875 C 1.554688 -4.789062 1.453125 -4.265625 1.453125 -3.640625 C 1.453125 -3.003906 1.554688 -2.46875 1.765625 -2.03125 C 1.972656 -1.601562 2.253906 -1.273438 2.609375 -1.046875 C 2.960938 -0.828125 3.363281 -0.71875 3.8125 -0.71875 C 4.132812 -0.71875 4.4375 -0.773438 4.71875 -0.890625 C 5 -1.015625 5.238281 -1.191406 5.4375 -1.421875 C 5.644531 -1.648438 5.785156 -1.929688 5.859375 -2.265625 L 6.734375 -2.265625 C 6.640625 -1.773438 6.453125 -1.351562 6.171875 -1 C 5.898438 -0.644531 5.554688 -0.375 5.140625 -0.1875 C 4.734375 0 4.289062 0.09375 3.8125 0.09375 C 3.1875 0.09375 2.628906 -0.0546875 2.140625 -0.359375 C 1.660156 -0.660156 1.28125 -1.085938 1 -1.640625 C 0.726562 -2.203125 0.59375 -2.867188 0.59375 -3.640625 C 0.59375 -4.398438 0.726562 -5.0625 1 -5.625 C 1.28125 -6.1875 1.660156 -6.617188 2.140625 -6.921875 C 2.628906 -7.222656 3.1875 -7.375 3.8125 -7.375 C 4.289062 -7.375 4.734375 -7.28125 5.140625 -7.09375 C 5.554688 -6.90625 5.898438 -6.632812 6.171875 -6.28125 C 6.453125 -5.925781 6.640625 -5.5 6.734375 -5 Z M 6.734375 -5 "/></g></g></g><g fill="#ffffff" fill-opacity="1"><g transform="translate(267.97912, 209.392882)"><g><path d="M 1.171875 0 L 0.25 0 L 2.921875 -7.265625 L 3.828125 -7.265625 L 6.5 0 L 5.578125 0 L 4.84375 -2.0625 L 1.90625 -2.0625 Z M 2.1875 -2.84375 L 4.578125 -2.84375 L 3.40625 -6.125 L 3.359375 -6.125 Z M 2.1875 -2.84375 "/></g></g></g><g fill="#ffffff" fill-opacity="1"><g transform="translate(276.737958, 209.392882)"><g><path d="M 6.640625 -7.265625 L 6.640625 0 L 5.796875 0 L 1.828125 -5.703125 L 1.765625 -5.703125 L 1.765625 0 L 0.875 0 L 0.875 -7.265625 L 1.734375 -7.265625 L 5.703125 -1.546875 L 5.78125 -1.546875 L 5.78125 -7.265625 Z M 6.640625 -7.265625 "/></g></g></g><g fill="#ffffff" fill-opacity="1"><g transform="translate(286.263562, 209.392882)"><g><path d="M 6.734375 -5 L 5.859375 -5 C 5.785156 -5.332031 5.644531 -5.613281 5.4375 -5.84375 C 5.238281 -6.070312 5 -6.242188 4.71875 -6.359375 C 4.4375 -6.484375 4.132812 -6.546875 3.8125 -6.546875 C 3.363281 -6.546875 2.960938 -6.429688 2.609375 -6.203125 C 2.253906 -5.984375 1.972656 -5.65625 1.765625 -5.21875 C 1.554688 -4.789062 1.453125 -4.265625 1.453125 -3.640625 C 1.453125 -3.003906 1.554688 -2.46875 1.765625 -2.03125 C 1.972656 -1.601562 2.253906 -1.273438 2.609375 -1.046875 C 2.960938 -0.828125 3.363281 -0.71875 3.8125 -0.71875 C 4.132812 -0.71875 4.4375 -0.773438 4.71875 -0.890625 C 5 -1.015625 5.238281 -1.191406 5.4375 -1.421875 C 5.644531 -1.648438 5.785156 -1.929688 5.859375 -2.265625 L 6.734375 -2.265625 C 6.640625 -1.773438 6.453125 -1.351562 6.171875 -1 C 5.898438 -0.644531 5.554688 -0.375 5.140625 -0.1875 C 4.734375 0 4.289062 0.09375 3.8125 0.09375 C 3.1875 0.09375 2.628906 -0.0546875 2.140625 -0.359375 C 1.660156 -0.660156 1.28125 -1.085938 1 -1.640625 C 0.726562 -2.203125 0.59375 -2.867188 0.59375 -3.640625 C 0.59375 -4.398438 0.726562 -5.0625 1 -5.625 C 1.28125 -6.1875 1.660156 -6.617188 2.140625 -6.921875 C 2.628906 -7.222656 3.1875 -7.375 3.8125 -7.375 C 4.289062 -7.375 4.734375 -7.28125 5.140625 -7.09375 C 5.554688 -6.90625 5.898438 -6.632812 6.171875 -6.28125 C 6.453125 -5.925781 6.640625 -5.5 6.734375 -5 Z M 6.734375 -5 "/></g></g></g><g fill="#ffffff" fill-opacity="1"><g transform="translate(295.533573, 209.392882)"><g><path d="M 0.875 0 L 0.875 -7.265625 L 5.265625 -7.265625 L 5.265625 -6.484375 L 1.765625 -6.484375 L 1.765625 -4.03125 L 5.046875 -4.03125 L 5.046875 -3.25 L 1.765625 -3.25 L 1.765625 -0.78125 L 5.328125 -0.78125 L 5.328125 0 Z M 0.875 0 "/></g></g></g></svg>